<svg width="127" height="116" viewBox="0 0 127 116" xmlns="http://www.w3.org/2000/svg" xmlns:xlink="http://www.w3.org/1999/xlink"><title>D4ED01D3-23FE-4FF0-9908-F5FF5740D6FA</title><defs><rect id="a" width="90" height="76" rx="5"/><mask id="d" x="0" y="0" width="90" height="76" fill="#fff"><use xlink:href="#a"/></mask><path id="b" d="M66 66h11v21l-5.5-3.281L66 87z"/><mask id="e" x="-1" y="-1" width="13" height="23"><path fill="#fff" d="M65 65h13v23H65z"/><use xlink:href="#b"/></mask><path id="c" d="M45 25.5l-4.114 2.163.785-4.581-3.328-3.245 4.6-.669L45 15l2.057 4.168 4.6.669-3.328 3.245.785 4.581z"/><mask id="f" x="-1" y="-1" width="15.315" height="14.663"><path fill="#fff" d="M37.343 14h15.315v14.663H37.343z"/><use xlink:href="#c"/></mask></defs><g fill="none" fill-rule="evenodd"><path d="M105 113.898h19.748M2 107.898h9.75M14 94.898h9.75M115 10h9.75M105 2h19.75" stroke="#6670ED" stroke-width="3" stroke-linecap="round" opacity=".344"/><g transform="translate(18 21)"><rect fill="#F0F1FB" x="4" y="21" width="82" height="60" rx="5"/><circle fill="#F0F1FB" cx="45.5" cy="22.5" r="14.5"/><use stroke="#242D9B" mask="url(#d)" stroke-width="6" stroke-linecap="round" stroke-linejoin="round" xlink:href="#a"/><path d="M41 35.898h8.976" stroke="#6670ED" stroke-width="3" stroke-linecap="round" opacity=".344"/><path d="M25 44h40.98M20 51h49.98M23 58h44.98" stroke="#6670ED" stroke-width="3" stroke-linecap="round" opacity=".971"/><use fill="#F33784" xlink:href="#b"/><use stroke="#F33784" mask="url(#e)" stroke-width="2" stroke-linecap="round" stroke-linejoin="round" xlink:href="#b"/><g><use fill="#00D388" xlink:href="#c"/><use stroke="#00D388" mask="url(#f)" stroke-width="2" stroke-linecap="round" stroke-linejoin="round" xlink:href="#c"/></g></g></g></svg>