<svg width="133" height="114" viewBox="0 0 133 114" xmlns="http://www.w3.org/2000/svg" xmlns:xlink="http://www.w3.org/1999/xlink"><title>B86ECDBD-C612-4776-8B9B-4453C5429CF9</title><defs><rect id="a" x="4" y="4" width="82" height="82" rx="5"/><mask id="b" x="0" y="0" width="82" height="82" fill="#fff"><use xlink:href="#a"/></mask></defs><g fill="none" fill-rule="evenodd"><path d="M30 10h9.75M114.43 10h16.32M109 50h9.75M9 2h19.75M122 102.898h8.976M2 111.898h8.976" stroke="#6670ED" stroke-width="3" stroke-linecap="round" opacity=".344"/><g transform="translate(23 21)"><rect fill="#F0F1FB" width="90" height="90" rx="5"/><path fill="#6670ED" d="M7 22h78v61H7z"/><g stroke-linecap="round" stroke="#959CF1" stroke-linejoin="round"><path d="M26.5 52v3.706M26.5 69.294V73M37 62.5h-3.706M19.706 62.5H16"/><g><path d="M33.925 55.075l-2.62 2.62M21.696 67.304l-2.62 2.62"/></g><g><path d="M18.907 54.907l2.62 2.62M31.136 67.136l2.62 2.62"/></g></g><path d="M36 17.898h20.98" stroke="#F0F1FB" stroke-width="3" stroke-linecap="round" opacity=".344"/><path d="M36 15h20.98" stroke="#6973EC" stroke-width="3" stroke-linecap="round" opacity=".344"/><path d="M27 62l6-2" stroke="#FFF" stroke-width="2" stroke-linecap="round"/><text font-family="OpenSans-Bold, Open Sans" font-size="22" font-weight="bold" letter-spacing=".11" fill="#FFF"><tspan x="49.5" y="53">21</tspan></text><text font-family="OpenSans-Bold, Open Sans" font-size="10" font-weight="bold" letter-spacing=".05" fill="#FFF"><tspan x="51.95" y="63">TUE</tspan></text><text font-family="OpenSans-Bold, Open Sans" font-size="10" font-weight="bold" letter-spacing=".05" fill="#FFF"><tspan x="18.166" y="38">JUL</tspan></text><use stroke="#242D9B" mask="url(#b)" stroke-width="6" stroke-linecap="round" stroke-linejoin="round" xlink:href="#a"/><path d="M26.5 62l3 9.5" stroke="#F33784" stroke-linecap="round"/><circle fill="#959CF1" cx="26.5" cy="62.5" r="1.5"/></g></g></svg>