<svg width="118" height="112" viewBox="0 0 118 112" xmlns="http://www.w3.org/2000/svg"><title>70C9BDAF-6BED-4C07-9CB2-38F8CBACE4C3</title><g fill="none" fill-rule="evenodd"><path d="M2 1.898h19.748M27.134 8.181h8.976M107 100.898h8.976M2 109.898h8.976M11.874 100.638h8.976" stroke="#6670ED" stroke-width="3" stroke-linecap="round" opacity=".344"/><path fill="#14235D" d="M13.669 27.032h88.866v49.37H13.669z"/><g stroke-width="3" stroke-linecap="round"><path d="M22.197 36.457h15.26" stroke="#00D388"/><path d="M22.197 43.638h8.976" stroke="#F0F1FB"/><path d="M22.197 51.717h15.26" stroke="#F33784"/><path d="M55.41 51.717h15.26" stroke="#00D388"/><path d="M42.843 51.717h6.283M76.953 51.717h11.669M22.197 58.898h8.976M37.457 58.898h33.212" stroke="#F0F1FB"/><path d="M86.827 43.638h8.079" stroke="#00D388"/><path d="M36.56 43.638h19.747" stroke="#F0F1FB"/><path d="M61.693 43.638H81.44M42.843 36.457h8.078" stroke="#F33784"/><path d="M22.197 66.976h15.26" stroke="#F0F1FB"/><path d="M42.843 66.976h8.078" stroke="#F33784"/></g><path d="M98.264 81.935H17.84a4.51 4.51 0 0 1-4.51-4.51v-50.82a4.51 4.51 0 0 1 4.51-4.51h80.423a4.51 4.51 0 0 1 4.51 4.51v50.82a4.51 4.51 0 0 1-4.51 4.51zM106.772 89.635H9.332c-.827 0-1.498-.67-1.498-1.498v-4.185c0-.827.67-1.498 1.498-1.498h97.44c.828 0 1.498.67 1.498 1.498v4.185c0 .828-.67 1.498-1.498 1.498zM48.302 83.73h19.5M13.33 27.484h71.675M102.774 27.484h-6.997M13.33 75.648h89.444" stroke="#242D9B" stroke-width="3" stroke-linecap="round" stroke-linejoin="round"/></g></svg>